<?xml version="1.0" standalone="no"?>
<!DOCTYPE svg PUBLIC "-//W3C//DTD SVG 20010904//EN"
 "http://www.w3.org/TR/2001/REC-SVG-20010904/DTD/svg10.dtd">
<svg version="1.0" xmlns="http://www.w3.org/2000/svg"
 width="750.000000pt" height="201.000000pt" viewBox="0 0 750.000000 201.000000"
 preserveAspectRatio="xMidYMid meet">

<g transform="translate(0.000000,201.000000) scale(0.100000,-0.100000)"
fill="#000000" stroke="none">
<path d="M4673 1863 c-6 -5 -23 -35 -38 -68 -15 -33 -78 -170 -140 -305 -228
-495 -408 -886 -429 -932 -11 -27 -24 -48 -27 -48 -3 0 -38 69 -77 153 -39 83
-96 205 -127 270 l-57 117 -48 0 -49 0 35 -77 c41 -92 57 -126 117 -253 25
-52 70 -148 101 -213 l55 -117 55 0 c48 0 56 3 62 22 6 21 33 81 106 238 17
36 57 121 88 190 31 69 72 157 90 195 66 145 81 176 195 425 64 140 132 288
151 328 19 40 34 74 34 76 0 6 -86 5 -97 -1z"/>
<path d="M5240 985 l0 -455 45 0 45 0 0 455 0 455 -45 0 -45 0 0 -455z"/>
<path d="M6984 1381 c-30 -18 -54 -64 -54 -103 0 -10 15 -35 33 -55 28 -30 40
-36 75 -36 71 0 112 42 112 115 0 22 -10 40 -36 64 -41 40 -82 44 -130 15z
m111 -26 c18 -17 25 -35 25 -64 0 -52 -29 -81 -80 -81 -44 0 -69 23 -77 73 -5
31 -1 40 25 67 37 37 74 39 107 5z"/>
<path d="M7000 1295 c0 -30 5 -55 10 -55 6 0 10 9 10 20 0 28 14 25 40 -7 l21
-28 -5 27 c-4 15 -1 36 5 47 20 31 4 51 -41 51 l-40 0 0 -55z m67 21 c-6 -17
-47 -20 -47 -3 0 9 6 17 13 20 18 6 38 -4 34 -17z"/>
<path d="M600 1197 c-54 -15 -111 -52 -142 -93 l-23 -29 -5 55 -5 55 -42 3
-43 3 0 -330 0 -331 45 0 45 0 0 203 c0 242 9 286 69 340 96 86 280 74 336
-23 18 -32 20 -56 23 -277 l3 -243 44 0 44 0 0 225 c1 249 5 268 62 321 44 40
86 54 167 54 90 0 144 -27 171 -84 19 -39 21 -60 21 -279 l0 -237 45 0 45 0 0
248 c0 136 -5 263 -10 284 -15 51 -79 112 -137 129 -27 8 -82 14 -123 13 -94
-1 -164 -29 -218 -88 l-39 -42 -27 38 c-42 59 -102 89 -188 94 -43 2 -92 -1
-118 -9z"/>
<path d="M1860 1200 c-105 -23 -192 -87 -242 -182 -20 -38 -23 -58 -23 -158 0
-109 2 -118 29 -168 60 -107 160 -168 298 -179 171 -15 308 54 380 189 19 37
23 58 23 153 0 101 -2 115 -28 167 -35 71 -101 131 -175 158 -64 24 -194 34
-262 20z m204 -84 c105 -32 166 -113 174 -230 5 -88 -9 -142 -51 -198 -113
-148 -373 -133 -472 26 -28 46 -30 56 -30 145 0 74 4 104 18 129 29 54 95 111
146 126 60 19 156 20 215 2z"/>
<path d="M2730 1201 c-65 -20 -122 -66 -149 -118 -20 -40 -31 -25 -31 42 l0
65 -45 0 -45 0 0 -330 0 -330 44 0 45 0 3 213 c3 194 5 215 25 252 45 84 108
120 211 119 l73 0 -3 46 -3 45 -50 2 c-27 1 -61 -2 -75 -6z"/>
<path d="M3178 1200 c-106 -19 -192 -85 -237 -180 -23 -49 -26 -67 -26 -165 0
-100 3 -115 27 -161 41 -79 74 -111 146 -146 62 -30 75 -32 172 -33 160 0 252
40 318 141 44 66 43 84 -8 84 -33 0 -42 -4 -49 -23 -31 -82 -122 -129 -247
-130 -70 0 -91 4 -139 27 -78 39 -133 119 -135 199 l0 27 313 0 c173 0 316 2
319 5 11 11 -15 143 -37 187 -33 66 -72 103 -146 137 -71 34 -186 47 -271 31z
m227 -97 c51 -27 100 -78 119 -125 30 -72 46 -68 -254 -68 -302 0 -288 -4
-249 73 36 71 85 114 159 138 46 15 181 4 225 -18z"/>
<path d="M4643 1200 c-102 -22 -183 -104 -183 -186 0 -21 4 -24 38 -24 36 0
39 3 58 48 26 62 67 83 178 89 92 6 179 -9 215 -36 19 -15 25 -30 29 -74 6
-80 -6 -86 -214 -103 -148 -12 -173 -16 -229 -43 -78 -36 -107 -83 -106 -167
0 -62 18 -101 61 -138 107 -89 374 -69 472 36 l27 29 11 -41 c14 -54 57 -74
128 -63 41 7 47 12 50 36 3 25 1 27 -32 27 -23 0 -43 7 -56 20 -19 19 -20 33
-20 235 0 273 -5 288 -109 337 -34 16 -69 21 -160 24 -64 2 -135 -1 -158 -6z
m317 -504 c-82 -134 -376 -159 -427 -38 -21 51 -11 101 27 133 37 32 55 36
213 50 66 6 138 16 161 23 l41 12 3 -74 c2 -60 -1 -79 -18 -106z"/>
<path d="M6490 1197 c-91 -26 -173 -98 -214 -186 -17 -37 -21 -66 -21 -151 0
-99 2 -109 33 -172 40 -82 93 -128 179 -157 122 -41 300 -19 385 46 38 29 108
126 108 149 0 10 -14 14 -45 14 -41 0 -46 -3 -64 -37 -40 -79 -111 -114 -231
-115 -146 -1 -241 67 -269 191 -6 29 -6 43 3 49 6 4 124 8 261 8 138 1 276 2
308 3 l57 1 0 39 c0 71 -36 165 -85 218 -65 73 -143 105 -265 110 -58 2 -112
-2 -140 -10z m273 -105 c56 -31 117 -114 117 -159 l0 -23 -266 0 -267 0 6 34
c7 46 52 111 94 137 94 58 224 63 316 11z"/>
<path d="M5472 933 c3 -244 4 -260 25 -299 48 -90 137 -129 278 -122 98 5 178
39 225 96 l30 37 0 -58 0 -57 50 0 50 0 0 331 0 330 -47 -3 -48 -3 -5 -226 -5
-226 -28 -42 c-48 -72 -118 -103 -238 -102 -49 0 -79 6 -108 21 -74 37 -75 43
-81 325 l-5 250 -48 3 -48 3 3 -258z"/>
</g>
</svg>
